<?xml version="1.0" encoding="utf-8"?>
<!-- Generator: Adobe Illustrator 18.1.1, SVG Export Plug-In . SVG Version: 6.00 Build 0)  -->
<!DOCTYPE svg PUBLIC "-//W3C//DTD SVG 1.1//EN" "http://www.w3.org/Graphics/SVG/1.1/DTD/svg11.dtd">
<svg version="1.1" id="Layer_1" xmlns="http://www.w3.org/2000/svg" xmlns:xlink="http://www.w3.org/1999/xlink" x="0px" y="0px"
	 viewBox="0 0 1465 360" enable-background="new 0 0 1465 360" xml:space="preserve">
<g>
	<g>
		<path d="M383.4,81h77.8c22.1,0,32.9,2.4,44,10.2c12.9,9,20.7,24.2,20.7,41.6c0,23.1-12.9,38.6-36.2,44.3
			c11.7,2.4,17.1,4.5,23.6,9.6c12.3,9,18.9,23.1,18.9,39.8c0,15.3-6,29.9-16.2,39.5c-10.8,10.2-24.5,14.7-45.5,14.7h-87.1V81z
			 M461.2,164.8c17.7,0,29-11.4,29-28.7c0-16.2-11.7-26.6-29.6-26.6h-43.1v55.4H461.2z M463.9,250.7c19.5,0,31.7-11.1,31.7-28.7
			c0-17.1-12.6-28.7-31.4-28.7h-46.7v57.5H463.9z"/>
		<path d="M551.4,115.7V81h33.2v34.7H551.4z M551.4,280.7V133.1h33.2v147.6H551.4z"/>
		<path d="M681,280.7c-9.3,2.1-18.6,3.3-23.4,3.3c-12.6,0-24.2-4.5-31.4-11.7c-7.8-7.8-10.2-16.8-10.2-36.8v-76.3h-18.3v-26h20.4
			l3-38.3l27.2-2.4v40.7h53.9v26h-53.9V231c0,18.6,5.4,23.9,24.2,23.9c1.2,0,4.8,0,8.4-0.3V280.7z"/>
		<path d="M880.1,280.7v-91.9c0-18.9-8.7-28.4-25.5-28.4c-20.7,0-32.3,15.6-32.3,42.8v77.5H787v-91.9c0-9.6-0.6-12.6-3.3-17.7
			c-3.9-7.2-11.7-11.4-20.7-11.4c-20.1,0-34.1,18-34.1,43.4v77.5h-34.4V133.1h32.3v31.4c6.6-12.6,10.2-18,16.2-23.1
			c8.4-7.2,20.4-11.4,32.9-11.4c21.9,0,35.3,10.8,42.5,34.4c12.3-23.4,28.1-34.4,49.4-34.4c27.5,0,47.3,19.2,47.3,46.1v104.5H880.1z
			"/>
		<path d="M1032.8,280.7c-3-10.8-4.2-17.4-5.1-29.9c-10.2,23.1-25.4,32.9-50,32.9c-28.7,0-48.8-18.6-48.8-45.2
			c0-23.1,14.7-38.9,42.5-45.8c15.6-3.9,29.9-5.1,56.3-5.1v-11.1c0-15.3-10.5-22.8-31.4-22.8c-20.4,0-30.5,6.9-34.1,22.8l-28.4-4.2
			c2.4-14.4,7.8-22.8,19.5-30.5c12.3-8.4,26.3-11.7,47.3-11.7c25.5,0,41,5.1,50.6,16.2c7.5,8.4,9.3,16.5,9.3,38v66.5
			c0,9.6,1.5,18.9,4.5,29.9H1032.8z M1027.7,205.5c-42.5,0-64.7,10.5-64.7,30.8c0,13.8,9.9,22.2,26,22.2c23,0,38.6-15.9,38.6-39.5
			V205.5z"/>
		<path d="M1184.6,280.7l-37.7-75.7l-32.6,36.8v38.9h-32V81h32v123.9c3-4.2,4.5-5.7,6.6-8.4l58.4-63.5h35.9l-44.3,48.8l48.8,98.8
			H1184.6z"/>
		<path d="M1349,237.6c-9.9,29.9-32.6,46.1-65.6,46.1c-41.3,0-68-29.9-68-76.3c0-46.1,27.8-77.2,69.5-77.2
			c42.5,0,66.2,28.7,66.5,80.8h-101.2v4.2c0.3,26.9,13.2,42.2,35.3,42.2c17.1,0,26.3-6.9,33.2-24L1349,237.6z M1316.9,189.4
			c-0.6-11.1-2.4-16.2-7.5-23.1c-6.3-8.4-15-12.9-25.7-12.9c-18.9,0-30.8,12.6-33.5,35.9H1316.9z"/>
		<path d="M1369.9,280.7V133.1h30.2v35.3c6.9-25.7,24.2-41,44.9-39.5v35.9h-2.1l-5.7,0.3c-19.2,0.6-34.1,21-34.1,47.3v68.3H1369.9z"
			/>
	</g>
	<g>
		<path fill="#007AFF" d="M120.3,231V97.7h63.7c22.5,0,41.2,14.6,46.7,36.4s-4.2,43.5-24,54.1L120.3,231z M139.6,117V200l58.4-28.9
			c14.4-7.7,16.6-22.3,14.1-32.3s-11.4-21.9-28-21.9H139.6z"/>
		<path fill="#007AFF" d="M184.1,261.6h-63.7V128.3l86.2,42.6c20.1,10.7,29.7,32.5,24.3,54.3S206.5,261.6,184.1,261.6z M139.6,242.4
			h44.5c16.6,0,25.5-11.8,28-21.9c2.5-10.1,0.3-24.6-14.4-32.5l-58.1-28.7V242.4z"/>
	</g>
	<path fill="#007AFF" d="M169.9,330c-82.7,0-150-67.3-150-150c0-82.7,67.3-150,150-150s150,67.3,150,150
		C319.9,262.7,252.6,330,169.9,330z M169.9,50.4C98.5,50.4,40.4,108.6,40.4,180s58.1,129.6,129.6,129.6S299.5,251.4,299.5,180
		S241.3,50.4,169.9,50.4z"/>
</g>
</svg>
